# xmcd
#
# Track frame offsets:
#	150
#	16522
#	36513
#	52896
#	69857
#	98456
#	113652
#	136007
#	152204
#	182209
#	196157
#	215621
#
# Disc length: 3058 seconds
# Revision: 0
# Processed by: cddbd v1.5.2PL0 Copyright (c) Steve Scherf et al.
# Submitted via: dBpowerAMP V12.0
#
DISCID=920bf00c
DTITLE=Eric Taylor - Shameless Love
DYEAR=1981
DGENRE=Blues
TTITLE0=Only Lovers
TTITLE1=Game of Hearts
TTITLE2=Hey Little Ryder
TTITLE3=East Texas Moon
TTITLE4=Joseph Cross
TTITLE5=Featherbed
TTITLE6=Shermann Karmann
TTITLE7=Cowgirl's Heel
TTITLE8=Charlie Ray McWhite
TTITLE9=Shameless Love
TTITLE10=Dollar Bill Hines
TTITLE11=Half Moon Hotel
EXTD=
EXTT0=
EXTT1=
EXTT2=
EXTT3=
EXTT4=
EXTT5=
EXTT6=
EXTT7=
EXTT8=
EXTT9=
EXTT10=
EXTT11=
PLAYORDER=
